<svg width="134" height="48" viewBox="0 0 134 48" fill="none" xmlns="http://www.w3.org/2000/svg">
<path d="M0.517045 18V0.545454H12.2784V3.58807H4.20739V7.74716H11.6733V10.7898H4.20739V14.9574H12.3125V18H0.517045ZM19.968 18.2131C18.9737 18.2131 18.0732 17.9574 17.2663 17.446C16.4652 16.929 15.8288 16.1705 15.3572 15.1705C14.8913 14.1648 14.6584 12.9318 14.6584 11.4716C14.6584 9.97159 14.8999 8.72443 15.3828 7.73011C15.8658 6.73011 16.5078 5.98295 17.3089 5.48864C18.1158 4.98864 18.9993 4.73864 19.9595 4.73864C20.6925 4.73864 21.3033 4.86364 21.7919 5.11364C22.2862 5.35795 22.6839 5.66477 22.9851 6.03409C23.2919 6.39773 23.5249 6.75568 23.6839 7.10795H23.7947V0.545454H27.4169V18H23.8374V15.9034H23.6839C23.5135 16.267 23.272 16.6278 22.9595 16.9858C22.6527 17.3381 22.2521 17.6307 21.7578 17.8636C21.2692 18.0966 20.6726 18.2131 19.968 18.2131ZM21.1186 15.3239C21.7038 15.3239 22.1982 15.1648 22.6016 14.8466C23.0107 14.5227 23.3232 14.071 23.5391 13.4915C23.7607 12.9119 23.8714 12.233 23.8714 11.4545C23.8714 10.6761 23.7635 10 23.5476 9.42614C23.3317 8.85227 23.0192 8.40909 22.6101 8.09659C22.201 7.78409 21.7038 7.62784 21.1186 7.62784C20.522 7.62784 20.0192 7.78977 19.6101 8.11364C19.201 8.4375 18.8913 8.88636 18.6811 9.46023C18.4709 10.0341 18.3658 10.6989 18.3658 11.4545C18.3658 12.2159 18.4709 12.8892 18.6811 13.4744C18.897 14.054 19.2067 14.5085 19.6101 14.8381C20.0192 15.1619 20.522 15.3239 21.1186 15.3239ZM38.7969 12.4261V4.90909H42.4276V18H38.9418V15.6222H38.8054C38.5099 16.3892 38.0185 17.0057 37.331 17.4716C36.6491 17.9375 35.8168 18.1705 34.8338 18.1705C33.9588 18.1705 33.1889 17.9716 32.5241 17.5739C31.8594 17.1761 31.3395 16.6108 30.9645 15.8778C30.5952 15.1449 30.4077 14.267 30.402 13.2443V4.90909H34.0327V12.5966C34.0384 13.3693 34.2457 13.9801 34.6548 14.429C35.0639 14.8778 35.6122 15.1023 36.2997 15.1023C36.7372 15.1023 37.1463 15.0028 37.527 14.804C37.9077 14.5994 38.2145 14.2983 38.4474 13.9006C38.6861 13.5028 38.8026 13.0114 38.7969 12.4261ZM49.0646 18.2472C48.2294 18.2472 47.4851 18.1023 46.8317 17.8125C46.1783 17.517 45.6612 17.0824 45.2805 16.5085C44.9055 15.929 44.718 15.2074 44.718 14.3438C44.718 13.6165 44.8516 13.0057 45.1186 12.5114C45.3857 12.017 45.7493 11.6193 46.2095 11.3182C46.6697 11.017 47.1925 10.7898 47.7777 10.6364C48.3686 10.483 48.9879 10.375 49.6357 10.3125C50.397 10.233 51.0107 10.1591 51.4766 10.0909C51.9425 10.017 52.2805 9.90909 52.4908 9.76705C52.701 9.625 52.8061 9.41477 52.8061 9.13636V9.08523C52.8061 8.54545 52.6357 8.12784 52.2947 7.83239C51.9595 7.53693 51.4822 7.3892 50.8629 7.3892C50.2095 7.3892 49.6896 7.53409 49.3033 7.82386C48.9169 8.10795 48.6612 8.46591 48.5362 8.89773L45.1783 8.625C45.3487 7.82955 45.6839 7.14205 46.1839 6.5625C46.6839 5.97727 47.3288 5.52841 48.1186 5.21591C48.9141 4.89773 49.8345 4.73864 50.88 4.73864C51.6072 4.73864 52.3033 4.82386 52.968 4.99432C53.6385 5.16477 54.2322 5.42898 54.7493 5.78693C55.272 6.14489 55.6839 6.60511 55.9851 7.16761C56.2862 7.72443 56.4368 8.39205 56.4368 9.17045V18H52.9936V16.1847H52.8913C52.6811 16.5938 52.3999 16.9545 52.0476 17.267C51.6953 17.5739 51.272 17.8153 50.7777 17.9915C50.2834 18.1619 49.7124 18.2472 49.0646 18.2472ZM50.1044 15.7415C50.6385 15.7415 51.1101 15.6364 51.5192 15.4261C51.9283 15.2102 52.2493 14.9205 52.4822 14.5568C52.7152 14.1932 52.8317 13.7812 52.8317 13.321V11.9318C52.718 12.0057 52.5618 12.0739 52.3629 12.1364C52.1697 12.1932 51.951 12.2472 51.7067 12.2983C51.4624 12.3437 51.218 12.3864 50.9737 12.4261C50.7294 12.4602 50.5078 12.4915 50.3089 12.5199C49.8828 12.5824 49.5107 12.6818 49.1925 12.8182C48.8743 12.9545 48.6271 13.1392 48.451 13.3722C48.2749 13.5994 48.1868 13.8835 48.1868 14.2244C48.1868 14.7188 48.3658 15.0966 48.7237 15.358C49.0874 15.6136 49.5476 15.7415 50.1044 15.7415ZM59.2536 18V4.90909H62.7734V7.19318H62.9098C63.1484 6.38068 63.549 5.76705 64.1115 5.35227C64.674 4.93182 65.3217 4.72159 66.0547 4.72159C66.2365 4.72159 66.4325 4.73295 66.6428 4.75568C66.853 4.77841 67.0376 4.80966 67.1967 4.84943V8.07102C67.0263 8.01989 66.7905 7.97443 66.4893 7.93466C66.1882 7.89489 65.9126 7.875 65.6626 7.875C65.1286 7.875 64.6513 7.99148 64.2308 8.22443C63.8161 8.4517 63.4865 8.76989 63.2422 9.17898C63.0036 9.58807 62.8842 10.0597 62.8842 10.5938V18H59.2536ZM73.2884 18.2131C72.294 18.2131 71.3935 17.9574 70.5866 17.446C69.7855 16.929 69.1491 16.1705 68.6776 15.1705C68.2116 14.1648 67.9787 12.9318 67.9787 11.4716C67.9787 9.97159 68.2202 8.72443 68.7031 7.73011C69.1861 6.73011 69.8281 5.98295 70.6293 5.48864C71.4361 4.98864 72.3196 4.73864 73.2798 4.73864C74.0128 4.73864 74.6236 4.86364 75.1122 5.11364C75.6065 5.35795 76.0043 5.66477 76.3054 6.03409C76.6122 6.39773 76.8452 6.75568 77.0043 7.10795H77.1151V0.545454H80.7372V18H77.1577V15.9034H77.0043C76.8338 16.267 76.5923 16.6278 76.2798 16.9858C75.973 17.3381 75.5724 17.6307 75.0781 17.8636C74.5895 18.0966 73.9929 18.2131 73.2884 18.2131ZM74.4389 15.3239C75.0241 15.3239 75.5185 15.1648 75.9219 14.8466C76.331 14.5227 76.6435 14.071 76.8594 13.4915C77.081 12.9119 77.1918 12.233 77.1918 11.4545C77.1918 10.6761 77.0838 10 76.8679 9.42614C76.652 8.85227 76.3395 8.40909 75.9304 8.09659C75.5213 7.78409 75.0241 7.62784 74.4389 7.62784C73.8423 7.62784 73.3395 7.78977 72.9304 8.11364C72.5213 8.4375 72.2116 8.88636 72.0014 9.46023C71.7912 10.0341 71.6861 10.6989 71.6861 11.4545C71.6861 12.2159 71.7912 12.8892 72.0014 13.4744C72.2173 14.054 72.527 14.5085 72.9304 14.8381C73.3395 15.1619 73.8423 15.3239 74.4389 15.3239ZM89.6371 18.2557C88.3132 18.2557 87.1683 17.9744 86.2024 17.4119C85.2422 16.8437 84.5007 16.054 83.978 15.0426C83.4553 14.0256 83.1939 12.8466 83.1939 11.5057C83.1939 10.1534 83.4553 8.97159 83.978 7.96023C84.5007 6.94318 85.2422 6.15341 86.2024 5.59091C87.1683 5.02273 88.3132 4.73864 89.6371 4.73864C90.9609 4.73864 92.103 5.02273 93.0632 5.59091C94.0291 6.15341 94.7734 6.94318 95.2962 7.96023C95.8189 8.97159 96.0803 10.1534 96.0803 11.5057C96.0803 12.8466 95.8189 14.0256 95.2962 15.0426C94.7734 16.054 94.0291 16.8437 93.0632 17.4119C92.103 17.9744 90.9609 18.2557 89.6371 18.2557ZM89.6541 15.4432C90.2564 15.4432 90.7592 15.2727 91.1626 14.9318C91.5661 14.5852 91.87 14.1136 92.0746 13.517C92.2848 12.9205 92.3899 12.2415 92.3899 11.4801C92.3899 10.7188 92.2848 10.0398 92.0746 9.44318C91.87 8.84659 91.5661 8.375 91.1626 8.02841C90.7592 7.68182 90.2564 7.50852 89.6541 7.50852C89.0462 7.50852 88.5348 7.68182 88.12 8.02841C87.7109 8.375 87.4013 8.84659 87.1911 9.44318C86.9865 10.0398 86.8842 10.7188 86.8842 11.4801C86.8842 12.2415 86.9865 12.9205 87.1911 13.517C87.4013 14.1136 87.7109 14.5852 88.12 14.9318C88.5348 15.2727 89.0462 15.4432 89.6541 15.4432ZM11.6264 47V29.5455H23.1832V32.5881H15.3168V36.7472H22.4162V39.7898H15.3168V47H11.6264ZM30.6023 47.2557C29.2557 47.2557 28.0966 46.983 27.125 46.4375C26.1591 45.8864 25.4148 45.108 24.892 44.1023C24.3693 43.0909 24.108 41.8949 24.108 40.5142C24.108 39.1676 24.3693 37.9858 24.892 36.9688C25.4148 35.9517 26.1506 35.1591 27.0994 34.5909C28.054 34.0227 29.1733 33.7386 30.4574 33.7386C31.321 33.7386 32.125 33.8778 32.8693 34.1562C33.6193 34.429 34.2727 34.8409 34.8295 35.392C35.392 35.9432 35.8295 36.6364 36.142 37.4716C36.4545 38.3011 36.6108 39.2727 36.6108 40.3864V41.3835H25.5568V39.1335H33.1932C33.1932 38.6108 33.0795 38.1477 32.8523 37.7443C32.625 37.3409 32.3097 37.0256 31.9062 36.7983C31.5085 36.5653 31.0455 36.4489 30.517 36.4489C29.9659 36.4489 29.4773 36.5767 29.0511 36.8324C28.6307 37.0824 28.3011 37.4205 28.0625 37.8466C27.8239 38.267 27.7017 38.7358 27.696 39.2528V41.392C27.696 42.0398 27.8153 42.5994 28.054 43.071C28.2983 43.5426 28.642 43.9062 29.0852 44.1619C29.5284 44.4176 30.054 44.5455 30.6619 44.5455C31.0653 44.5455 31.4347 44.4886 31.7699 44.375C32.1051 44.2614 32.392 44.0909 32.6307 43.8636C32.8693 43.6364 33.0511 43.358 33.1761 43.0284L36.5341 43.25C36.3636 44.0568 36.0142 44.7614 35.4858 45.3636C34.9631 45.9602 34.2869 46.4261 33.4574 46.7614C32.6335 47.0909 31.6818 47.2557 30.6023 47.2557ZM38.9801 47V33.9091H42.5V36.1932H42.6364C42.875 35.3807 43.2756 34.767 43.8381 34.3523C44.4006 33.9318 45.0483 33.7216 45.7812 33.7216C45.9631 33.7216 46.1591 33.733 46.3693 33.7557C46.5795 33.7784 46.7642 33.8097 46.9233 33.8494V37.071C46.7528 37.0199 46.517 36.9744 46.2159 36.9347C45.9148 36.8949 45.6392 36.875 45.3892 36.875C44.8551 36.875 44.3778 36.9915 43.9574 37.2244C43.5426 37.4517 43.2131 37.7699 42.9688 38.179C42.7301 38.5881 42.6108 39.0597 42.6108 39.5938V47H38.9801ZM52.4311 39.4318V47H48.8004V33.9091H52.2607V36.2188H52.4141C52.7038 35.4574 53.1896 34.8551 53.8714 34.4119C54.5533 33.9631 55.38 33.7386 56.3516 33.7386C57.2607 33.7386 58.0533 33.9375 58.7294 34.3352C59.4055 34.733 59.9311 35.3011 60.3061 36.0398C60.6811 36.7727 60.8686 37.6477 60.8686 38.6648V47H57.2379V39.3125C57.2436 38.5114 57.0391 37.8864 56.6243 37.4375C56.2095 36.983 55.6385 36.7557 54.9112 36.7557C54.4226 36.7557 53.9908 36.8608 53.6158 37.071C53.2464 37.2812 52.9567 37.5881 52.7464 37.9915C52.5419 38.3892 52.4368 38.8693 52.4311 39.4318ZM67.4631 47.2472C66.6278 47.2472 65.8835 47.1023 65.2301 46.8125C64.5767 46.517 64.0597 46.0824 63.679 45.5085C63.304 44.929 63.1165 44.2074 63.1165 43.3438C63.1165 42.6165 63.25 42.0057 63.517 41.5114C63.7841 41.017 64.1477 40.6193 64.608 40.3182C65.0682 40.017 65.5909 39.7898 66.1761 39.6364C66.767 39.483 67.3864 39.375 68.0341 39.3125C68.7955 39.233 69.4091 39.1591 69.875 39.0909C70.3409 39.017 70.679 38.9091 70.8892 38.767C71.0994 38.625 71.2045 38.4148 71.2045 38.1364V38.0852C71.2045 37.5455 71.0341 37.1278 70.6932 36.8324C70.358 36.5369 69.8807 36.3892 69.2614 36.3892C68.608 36.3892 68.0881 36.5341 67.7017 36.8239C67.3153 37.108 67.0597 37.4659 66.9347 37.8977L63.5767 37.625C63.7472 36.8295 64.0824 36.142 64.5824 35.5625C65.0824 34.9773 65.7273 34.5284 66.517 34.2159C67.3125 33.8977 68.233 33.7386 69.2784 33.7386C70.0057 33.7386 70.7017 33.8239 71.3665 33.9943C72.0369 34.1648 72.6307 34.429 73.1477 34.7869C73.6705 35.1449 74.0824 35.6051 74.3835 36.1676C74.6847 36.7244 74.8352 37.392 74.8352 38.1705V47H71.392V45.1847H71.2898C71.0795 45.5938 70.7983 45.9545 70.446 46.267C70.0938 46.5739 69.6705 46.8153 69.1761 46.9915C68.6818 47.1619 68.1108 47.2472 67.4631 47.2472ZM68.5028 44.7415C69.0369 44.7415 69.5085 44.6364 69.9176 44.4261C70.3267 44.2102 70.6477 43.9205 70.8807 43.5568C71.1136 43.1932 71.2301 42.7812 71.2301 42.321V40.9318C71.1165 41.0057 70.9602 41.0739 70.7614 41.1364C70.5682 41.1932 70.3494 41.2472 70.1051 41.2983C69.8608 41.3437 69.6165 41.3864 69.3722 41.4261C69.1278 41.4602 68.9062 41.4915 68.7074 41.5199C68.2813 41.5824 67.9091 41.6818 67.5909 41.8182C67.2727 41.9545 67.0256 42.1392 66.8494 42.3722C66.6733 42.5994 66.5852 42.8835 66.5852 43.2244C66.5852 43.7188 66.7642 44.0966 67.1222 44.358C67.4858 44.6136 67.946 44.7415 68.5028 44.7415ZM81.2827 39.4318V47H77.652V33.9091H81.1122V36.2188H81.2656C81.5554 35.4574 82.0412 34.8551 82.723 34.4119C83.4048 33.9631 84.2315 33.7386 85.2031 33.7386C86.1122 33.7386 86.9048 33.9375 87.581 34.3352C88.2571 34.733 88.7827 35.3011 89.1577 36.0398C89.5327 36.7727 89.7202 37.6477 89.7202 38.6648V47H86.0895V39.3125C86.0952 38.5114 85.8906 37.8864 85.4759 37.4375C85.0611 36.983 84.4901 36.7557 83.7628 36.7557C83.2741 36.7557 82.8423 36.8608 82.4673 37.071C82.098 37.2812 81.8082 37.5881 81.598 37.9915C81.3935 38.3892 81.2884 38.8693 81.2827 39.4318ZM97.4055 47.2131C96.4112 47.2131 95.5107 46.9574 94.7038 46.446C93.9027 45.929 93.2663 45.1705 92.7947 44.1705C92.3288 43.1648 92.0959 41.9318 92.0959 40.4716C92.0959 38.9716 92.3374 37.7244 92.8203 36.7301C93.3033 35.7301 93.9453 34.983 94.7464 34.4886C95.5533 33.9886 96.4368 33.7386 97.397 33.7386C98.13 33.7386 98.7408 33.8636 99.2294 34.1136C99.7237 34.358 100.121 34.6648 100.423 35.0341C100.729 35.3977 100.962 35.7557 101.121 36.108H101.232V29.5455H104.854V47H101.275V44.9034H101.121C100.951 45.267 100.71 45.6278 100.397 45.9858C100.09 46.3381 99.6896 46.6307 99.1953 46.8636C98.7067 47.0966 98.1101 47.2131 97.4055 47.2131ZM98.5561 44.3239C99.1413 44.3239 99.6357 44.1648 100.039 43.8466C100.448 43.5227 100.761 43.071 100.977 42.4915C101.198 41.9119 101.309 41.233 101.309 40.4545C101.309 39.6761 101.201 39 100.985 38.4261C100.769 37.8523 100.457 37.4091 100.048 37.0966C99.6385 36.7841 99.1413 36.6278 98.5561 36.6278C97.9595 36.6278 97.4567 36.7898 97.0476 37.1136C96.6385 37.4375 96.3288 37.8864 96.1186 38.4602C95.9084 39.0341 95.8033 39.6989 95.8033 40.4545C95.8033 41.2159 95.9084 41.8892 96.1186 42.4744C96.3345 43.054 96.6442 43.5085 97.0476 43.8381C97.4567 44.1619 97.9595 44.3239 98.5561 44.3239ZM113.805 47.2557C112.459 47.2557 111.3 46.983 110.328 46.4375C109.362 45.8864 108.618 45.108 108.095 44.1023C107.572 43.0909 107.311 41.8949 107.311 40.5142C107.311 39.1676 107.572 37.9858 108.095 36.9688C108.618 35.9517 109.354 35.1591 110.303 34.5909C111.257 34.0227 112.376 33.7386 113.661 33.7386C114.524 33.7386 115.328 33.8778 116.072 34.1562C116.822 34.429 117.476 34.8409 118.033 35.392C118.595 35.9432 119.033 36.6364 119.345 37.4716C119.658 38.3011 119.814 39.2727 119.814 40.3864V41.3835H108.76V39.1335H116.396C116.396 38.6108 116.283 38.1477 116.055 37.7443C115.828 37.3409 115.513 37.0256 115.109 36.7983C114.712 36.5653 114.249 36.4489 113.72 36.4489C113.169 36.4489 112.68 36.5767 112.254 36.8324C111.834 37.0824 111.504 37.4205 111.266 37.8466C111.027 38.267 110.905 38.7358 110.899 39.2528V41.392C110.899 42.0398 111.018 42.5994 111.257 43.071C111.501 43.5426 111.845 43.9062 112.288 44.1619C112.732 44.4176 113.257 44.5455 113.865 44.5455C114.268 44.5455 114.638 44.4886 114.973 44.375C115.308 44.2614 115.595 44.0909 115.834 43.8636C116.072 43.6364 116.254 43.358 116.379 43.0284L119.737 43.25C119.567 44.0568 119.217 44.7614 118.689 45.3636C118.166 45.9602 117.49 46.4261 116.661 46.7614C115.837 47.0909 114.885 47.2557 113.805 47.2557ZM133.075 37.642L129.751 37.8466C129.695 37.5625 129.572 37.3068 129.385 37.0795C129.197 36.8466 128.95 36.6619 128.643 36.5256C128.342 36.3835 127.982 36.3125 127.561 36.3125C126.999 36.3125 126.524 36.4318 126.138 36.6705C125.751 36.9034 125.558 37.2159 125.558 37.608C125.558 37.9205 125.683 38.1847 125.933 38.4006C126.183 38.6165 126.612 38.7898 127.22 38.9205L129.589 39.3977C130.862 39.6591 131.811 40.0795 132.436 40.6591C133.061 41.2386 133.374 42 133.374 42.9432C133.374 43.8011 133.121 44.554 132.615 45.2017C132.115 45.8494 131.428 46.3551 130.553 46.7188C129.683 47.0767 128.68 47.2557 127.544 47.2557C125.811 47.2557 124.43 46.8949 123.402 46.1733C122.379 45.446 121.78 44.4574 121.604 43.2074L125.175 43.0199C125.283 43.5483 125.544 43.9517 125.959 44.2301C126.374 44.5028 126.905 44.6392 127.553 44.6392C128.189 44.6392 128.7 44.517 129.087 44.2727C129.479 44.0227 129.678 43.7017 129.683 43.3097C129.678 42.9801 129.538 42.7102 129.266 42.5C128.993 42.2841 128.572 42.1193 128.004 42.0057L125.737 41.554C124.459 41.2983 123.507 40.8551 122.882 40.2244C122.263 39.5937 121.953 38.7898 121.953 37.8125C121.953 36.9716 122.18 36.2472 122.635 35.6392C123.095 35.0312 123.74 34.5625 124.57 34.233C125.405 33.9034 126.382 33.7386 127.501 33.7386C129.155 33.7386 130.456 34.0881 131.405 34.7869C132.359 35.4858 132.916 36.4375 133.075 37.642Z" fill="#000"/>
</svg>
